<svg xmlns="http://www.w3.org/2000/svg" viewBox="0 0 445.74 256.57">
    <path fill="#EFEFEF" d="M63.68 48.91q5 2.12 7.06 5.45t1.63 10a71.41 71.41 0 0 1-2.06 15.74q-1.85 7.26-3.59 14.83a72 72 0 0 1-3.37 10.9q-2.07 5.15-4.46 9.84t-4.67 9.54q-2.28 4.85-4.24 10-3-1.21-3.48-3.78a14.32 14.32 0 0 1 0-5 63.41 63.41 0 0 1 1.41-8.32q1-4.09 1.63-8.32 2.39-11.5 4.56-22.85t4.13-22.85q.87-4.54-.11-6.36t-4.67-3.94q-2.39-1.21-4.78-2.27t-5-2q-9.57-2.72-13 8.78-2.39 8.48-4.35 16.8a158.33 158.33 0 0 0-3 17.41 182.71 182.71 0 0 0-1.2 25.88 137.19 137.19 0 0 0 3.37 26.49 27.48 27.48 0 0 0 5.87 12.11q4.34 5.15 9 10a131.15 131.15 0 0 0 9.67 9.08q11.08 9.69 14.13 22.7t-2.61 26.64a14.67 14.67 0 0 0-.65 2.42 15.06 15.06 0 0 1-.65 2.42 69.57 69.57 0 0 1-3.37 7.42 11 11 0 0 1-5.11 5h.22a24.79 24.79 0 0 0-5.32 2.42 53.39 53.39 0 0 1-5.11 2.72 25.54 25.54 0 0 1-5.56 1.8 13 13 0 0 1-6.19-.3 50 50 0 0 0-6.52-1.36 31.16 31.16 0 0 1-6.52-1.67 50.62 50.62 0 0 0-6.63-2q-3.37-.76-7.28-2-.44-2.43-.76-5t-.54-5q-.44-7.26-.87-14.53T0 203.61a20.7 20.7 0 0 1 2.93-12q3.15-5 7.06-5.3l7.61 33.9q.43 2.43.87 5.3t2.61 3.18a15.19 15.19 0 0 0 5-.91 7.18 7.18 0 0 0 3.91-3 29.34 29.34 0 0 0 3.48-7.72q1.3-4.39 2.61-8.63a23.45 23.45 0 0 0 .76-5.15 37.17 37.17 0 0 1 .54-5.15 16.85 16.85 0 0 0-.22-8.93 24.87 24.87 0 0 0-4.13-7.72q-2.39-3.33-5-6.66a69.41 69.41 0 0 0-5.65-6.36 63.32 63.32 0 0 1-7.61-9.54 62 62 0 0 1-5.85-11.31 80.5 80.5 0 0 1-3.26-9.84q-1.3-5-2.39-10.14a100.08 100.08 0 0 1-1.3-24.37A105.83 105.83 0 0 1 6.1 80.71q2.39-8.17 4.67-16.5t4.89-16.2a47.22 47.22 0 0 1 2.5-6.21 25.62 25.62 0 0 1 3.15-5 4.36 4.36 0 0 1 3.48-1.51 11.91 11.91 0 0 1 3.91.61q7 2.43 13.91 5t13.91 5.3zM8 125.19l-.22-.61-.22.3z"/>
    <path fill="#EFEFEF" d="M131.92 73.13q3 3.33 1.63 5.45a22.25 22.25 0 0 1-3.8 4.24 31.36 31.36 0 0 1-13 6.51q-7.17 1.67-13.69 3.48a.75.75 0 0 0-.65.3q-1.3 7-2.72 13.77t-2.97 13.73q-1.09 5.45-2.28 12.56t-2.17 13.93q-1 6.81-1.41 12.56t.22 8.17a9.54 9.54 0 0 1 .22 4.54q-.65 6.06-1.41 12.41t-1.2 12.41a67 67 0 0 0 3.91 23q1.3-1.82 2.39-3.18a12.57 12.57 0 0 0 1.74-2.88q4.78-6.05 9.45-11.35a39.91 39.91 0 0 0 7.28-12q-.65 4.85-1.52 9.38-.87 4.24-2.17 8.63a41.8 41.8 0 0 1-3.48 8.32 65 65 0 0 1-4.35 9.08 37.29 37.29 0 0 1-5.76 7.72 17.81 17.81 0 0 1-6.52 4.39 6 6 0 0 1-6.41-1.51 7 7 0 0 1-1.3-2.88q-.65-2.27-1.41-5t-1.41-5.3c-.43-1.71-.73-2.88-.87-3.48a88.19 88.19 0 0 1-2.93-12.87 57.76 57.76 0 0 1-.33-13.65q.43-7 .33-14.38t-.11-14.38q.21-9.68.54-24.37t1.85-29.82q.43-3 .65-6.66t.65-7.87H78q-5.65 0-11.19.3a65.81 65.81 0 0 1-11-.3 6.14 6.14 0 0 1-2.28-.61 9.57 9.57 0 0 1-2.61-1.67 5.45 5.45 0 0 1-1.63-2.42 3 3 0 0 1 .87-2.88 4.54 4.54 0 0 1 2.72-1.67 16.85 16.85 0 0 1 4-.45h4.13a11.81 11.81 0 0 0 3-.3q3.7-1.21 7.06-2.42t6.93-2.1a5.53 5.53 0 0 1 1.74-.61q.43-9.68 1-17.41a83.14 83.14 0 0 1 1-9.54 12.92 12.92 0 0 0 .22-3.94 32 32 0 0 1 3-18.77 24.84 24.84 0 0 0 .87-4.24 25.82 25.82 0 0 0 .44-4.54 20.92 20.92 0 0 1 .43-4.24q.87-4.24 1.85-8.63t2.06-8.63a17.37 17.37 0 0 1 8.37-.91 37.64 37.64 0 0 1 7.93 2.12 4.75 4.75 0 0 1 2.93 2.72 14.2 14.2 0 0 1 1.2 4.84 34.76 34.76 0 0 1 0 5.45q-1.52 14.23-2.93 28.15t-2.7 28.18l-.41 4.85a69.9 69.9 0 0 0 10-2 70.32 70.32 0 0 1 10-2c0-1.41.29-2.27.87-2.57a2.45 2.45 0 0 1 2.06 0 6.76 6.76 0 0 1 2.28 1.51q1.06 1.13 1.71 1.73z"/>
    <path fill="#EFEFEF" d="M163.65 123.07q5 2.12 3.91 7.57c-.29 1-.54 2-.76 2.88a17.7 17.7 0 0 1-1 2.88 172.46 172.46 0 0 1-25.21 42.38q-2.83 3.63-5.54 7.57a54.78 54.78 0 0 0-4.67 8.17 21.42 21.42 0 0 0-1.63 6.51q-.33 3.48-.33 6.81a26.67 26.67 0 0 0 2.83 11.2 27.12 27.12 0 0 0 6.74 9.38q1.74-1.82 4.67-4.69a64.93 64.93 0 0 0 4.67-5 166.24 166.24 0 0 1 13.91-15.59 81.66 81.66 0 0 0 10.43-12q-.44 3.33-1.09 6.66-.44 2.72-1.19 6.05a31.13 31.13 0 0 1-1.85 5.75 50.94 50.94 0 0 1-8.48 13.47q-5 5.61-11.3 12-3.7 3.63-7.5 3.63a26.26 26.26 0 0 1-8.8-1.82 32.25 32.25 0 0 1-13.47-10 44.16 44.16 0 0 1-8.69-16.35 9.75 9.75 0 0 1-.54-2.57 30.69 30.69 0 0 0-.54-3.48q-.22-3-.43-6.05a60.1 60.1 0 0 1-.11-6.36q.11-3.33.54-7.57a85.54 85.54 0 0 1 1.74-10 135.7 135.7 0 0 1 4.78-18.47q3-9.08 5.87-18.16 1.08-3.33 2.5-6.66t2.93-6.66a29.71 29.71 0 0 1 2-3.48q1.09-1.66 2.17-3.18 4.13-6.05 11.52-4.24a11.07 11.07 0 0 0 3.69.61 13.23 13.23 0 0 1 3.91.6 10.42 10.42 0 0 1 4.13 1.82 33.85 33.85 0 0 0 10.19 6.39zm-29.12 40q15.47-21.53 19.56-35.46-4.35-1.82-5.54-1.67t-3.37 3.48a64.69 64.69 0 0 0-7.61 14.83 87.81 87.81 0 0 0-4.13 16.36 2.52 2.52 0 0 0 .33 1.21 10.4 10.4 0 0 0 .76 1.21z"/>
    <path fill="#EFEFEF" d="M221.24 115.2q7.6-3.33 12.39 5.15a15 15 0 0 1 2.06 7.27 25.37 25.37 0 0 1-1.2 8.17q-2 7-3.91 14.23t-3.69 14.53a65.48 65.48 0 0 1-2.5 7 64.93 64.93 0 0 0-2.5 7v6.36a21.93 21.93 0 0 1-2.61-.15 6.29 6.29 0 0 1-2.39-.76q-5.65-2.42-7.06-6.21t.33-11.65q1.74-7.26 3.59-14.53t3.59-14.53l2-8.78a7.16 7.16 0 0 0-3.59 2.72 22.91 22.91 0 0 0-2.06 3.94 279.73 279.73 0 0 0-10.87 26.79 220.49 220.49 0 0 0-7.87 28.86q-1.74 8.48-3.8 16.5t-4.24 16.2a19.72 19.72 0 0 0-1 6.81 15.59 15.59 0 0 0 1.85 6.81 12.9 12.9 0 0 1-7.61 3.63 11.26 11.26 0 0 1-7.15-1.85 15.36 15.36 0 0 1-5.32-6.36 25.38 25.38 0 0 1-2.28-10.29 52.09 52.09 0 0 1 .43-9.54q.65-4.69 1.09-9.54l.87-10.6q.65-6.65 1.09-11.65t.87-9.84q.43-4.84 1-10.14t1.41-12.56a131.16 131.16 0 0 1 1.84-19.21q1.63-9.54 3.15-19.22 1.09-5.75 2.61-7.11t5.87-.45a18.56 18.56 0 0 1 5.54 2.12 15.4 15.4 0 0 1 3.8 3.94q-3.26 15.74-5.22 31.63a146 146 0 0 0-.22 32.84l8.91-20.28q3.69-8.47 7.17-17a51.5 51.5 0 0 1 9.11-14.84q1.52-1.51 3.15-3.18a8.93 8.93 0 0 1 3.37-2.23zM287.53 222.67a112.5 112.5 0 0 1 9.78-16 96.88 96.88 0 0 1 12.6-14.53q-2.83 9.08-5.22 15.74T300 219.61q-2.28 5.15-4.24 9.23t-3.69 8a14.36 14.36 0 0 1-5.11 5.3 8.25 8.25 0 0 1-5.87 1.06 11.63 11.63 0 0 1-5.54-3 16.41 16.41 0 0 1-4.13-7 50 50 0 0 1-2.17-7.11q-.87-3.78-2.17-8.63-2 4.54-3.59 8.48t-2.93 7.87q-3 9.08-6.74 10.6a18.65 18.65 0 0 1-9.13.91 19.42 19.42 0 0 1-8-3q-3.7-2.43-6.09-8.17a30.06 30.06 0 0 1-.54-4.39q-.33-3.78-.54-9.08t-.11-11.35a94.9 94.9 0 0 1 .76-10.9 156.92 156.92 0 0 1 5.32-23q2.93-8.78 5.76-17l2.17-6.05a61.23 61.23 0 0 1 2.39-5.75q2.17-4.84 6.52-4.54a34.46 34.46 0 0 0 7.17.45 35.17 35.17 0 0 1 7.17.45 19.16 19.16 0 0 1 4.67 1.21q2.28.91 4.67 2.12a5.67 5.67 0 0 1 1.2 1.82l1.63 3.63q-2.83.61-4.89 1.21a9.1 9.1 0 0 1-4 .3 5.73 5.73 0 0 0-4.56 1.21 16.65 16.65 0 0 0-3.48 4.84 89.89 89.89 0 0 0-5.11 13.32q-2.07 7-3.8 14.53t-2.83 15q-1.09 7.42-1.52 15.29v8.78c1-1.21 1.81-2.17 2.39-2.88a7.69 7.69 0 0 0 1.3-2.27q3-7 5.65-13.92t5.63-13.57q2.61-5.75 5.43-11t5.65-10.44q2.39-4.84 6.08-3.63a3 3 0 0 0 1.63.15 3.13 3.13 0 0 1 1.63.15q7 .61 8.26 3.48t-.87 12a141 141 0 0 0-2.93 16.65q-1 8.48-1.41 17.25a18.72 18.72 0 0 0 .11 2c.07.58.18 1.44.33 2.45z"/>
    <path fill="#EFEFEF" d="M364.89 222.67a28.39 28.39 0 0 0 2.93-6.21q1.63-4.39 3.59-9.23t4-9.08a24.72 24.72 0 0 1 3.8-6.05q-1.3 6.06-2.61 12.41t-2.6 12.1q-1.3 5.75-2.72 10.44a53.74 53.74 0 0 1-2.72 7.42q-3.48 5.45-7.93 6.66a15.4 15.4 0 0 1-9.45-.61q-12.39-5.45-17.39-23-1.09-4.24-2.17-8.32t-2.17-8.32q-1.52 3.33-2.61 6.21t-2.17 5.9q-.87 2.12 0 3.33a11 11 0 0 1 1.09 7q-.65 3.33-1.09 7-1.09 5.75-1.85 11.5t-1.63 11.81a12.64 12.64 0 0 1-9.13.76 62.75 62.75 0 0 1-8.69-3.48 4.38 4.38 0 0 1-1.74-2.57q-.65-2-.33-9.38t1.7-22.35q1.3-14.83 4.35-40.87 1.74-28.15 5.54-55.4t7.93-54.79q.21-2.11 1.09-6.81t1.74-10l1.63-10q.76-4.69 1.2-7.11a4.51 4.51 0 0 1 4.24 2.12 26.81 26.81 0 0 1 3.37 6.21q1.52 3.79 2.83 8a62 62 0 0 0 2.83 7.57q-1.74 12.11-3.37 23.91t-2.5 23.91q-.44 6.06-1.3 11.81t-1.58 11.7q-.65 5.9-1 11.81a93.76 93.76 0 0 0 .11 12q2.82-5.75 5.43-11.35t5.43-11q3.69-7 7.72-13.32a64.67 64.67 0 0 1 9.24-11.5 13 13 0 0 1 3.8-2.57q1.84-.75 4.24.76 4.78 3 3.91 10a12.81 12.81 0 0 0-.22 2.27 6.73 6.73 0 0 1-.44 2.27q-5 17.26-10.65 33.9a135.13 135.13 0 0 1-15 30.88l-4.78 6.66q1.52 2.72 3 5.15a28.46 28.46 0 0 1 2.61 5.45 24.06 24.06 0 0 1 1.2 6.66 41.51 41.51 0 0 0 .76 6.66q1.52 6.06 3 12a19.49 19.49 0 0 0 5.87 9.84 11.54 11.54 0 0 0 5.43-4.24q2.27-3.19 4.23-6.52zm-23.69-82.64q-1.09 2.43-3 7.11t-4 10q-2.07 5.3-3.59 10.29a23.27 23.27 0 0 0-1.3 8 59.17 59.17 0 0 0 11.08-13.62 158 158 0 0 0 9.5-18.2q4.34-9.68 7.61-19.37t5.22-17.56A37.92 37.92 0 0 0 350 121.26q-4.89 9.35-8.8 18.77z"/>
    <path fill="#EFEFEF" d="M426.17 212.07q5-1.21 9.13-6.21t10.43-13.77a45.27 45.27 0 0 1-2 13.92 37.06 37.06 0 0 1-5 10.29 32.27 32.27 0 0 1-6.63 7 28.86 28.86 0 0 1-6.63 3.94 68.72 68.72 0 0 1-8.15 18.62q-4.89 7.41-14.89 9.54-12.61 3-18.15-1.51t-6.19-17.86a38 38 0 0 1 1.91-14.42q2.28-6.81 7.06-9.54a10.45 10.45 0 0 1 4.35-1.36 33.24 33.24 0 0 1 4.46 0 39.5 39.5 0 0 1 4.67.61 13.06 13.06 0 0 0 5.22-.15 61.43 61.43 0 0 0 .43-10.29q-.22-5.14-.43-10.29a88 88 0 0 0-1.76-17.42 101.41 101.41 0 0 0-4.78-16.5q-.65-1.51-1.3-2.88a17.17 17.17 0 0 0-1.52-2.57q-1.09 4.24-2.83 9.84T389 173.32q-3 7.88-6.63 16.35a106.06 106.06 0 0 1-9.67 17.56 35.19 35.19 0 0 0 1.63-7.57q.54-4.54 2.06-11.81 2-8.78 5.11-20.43t7.5-27.7a1.06 1.06 0 0 0-.22-.6q3-3 6.52-2.57a14.64 14.64 0 0 1 6.52 2.57 53.4 53.4 0 0 1 14.34 13.17q6.08 8 8.48 20.74a148.33 148.33 0 0 1 2.17 16 115.69 115.69 0 0 1-.64 23.04zm-35.64 35.42a8.26 8.26 0 0 0 5.32-.61 12 12 0 0 0 4.89-4.39 28.07 28.07 0 0 0 3.59-8.17 47.94 47.94 0 0 0 1.67-11.35 60.08 60.08 0 0 0-7.5-1.51 65.7 65.7 0 0 1-6.63-1.21q-3.7-.91-5.65 4.54a25.11 25.11 0 0 0-2 8.17 24.61 24.61 0 0 0 .54 7.11 13.43 13.43 0 0 0 2.28 5.15 5.47 5.47 0 0 0 3.49 2.27z"/>
</svg>