<svg xmlns="http://www.w3.org/2000/svg" viewBox="0 0 134.01 249.85">
    <path d="M63.68 48.91q5 2.12 7.06 5.45t1.63 10a71.41 71.41 0 0 1-2.06 15.74q-1.85 7.27-3.59 14.83a72 72 0 0 1-3.37 10.9q-2.07 5.15-4.46 9.84t-4.67 9.54q-2.28 4.85-4.24 10-3-1.21-3.48-3.78a14.33 14.33 0 0 1 0-5 63.43 63.43 0 0 1 1.41-8.33q1-4.09 1.63-8.32 2.39-11.5 4.56-22.86t4.13-22.85q.87-4.54-.11-6.36t-4.67-3.94q-2.39-1.21-4.78-2.27t-5-2q-9.57-2.72-13 8.78-2.39 8.48-4.35 16.8a158.37 158.37 0 0 0-3 17.41 182.71 182.71 0 0 0-1.2 25.88 137.2 137.2 0 0 0 3.37 26.49 27.48 27.48 0 0 0 5.81 12.13q4.34 5.15 9 10a131.27 131.27 0 0 0 9.67 9.08q11.08 9.69 14.13 22.7t-2.61 26.64a14.69 14.69 0 0 0-.65 2.42 15 15 0 0 1-.65 2.42 69.53 69.53 0 0 1-3.37 7.42 11 11 0 0 1-5.11 5h.22a24.77 24.77 0 0 0-5.32 2.42 53.39 53.39 0 0 1-5.11 2.72 25.59 25.59 0 0 1-5.54 1.82 13.05 13.05 0 0 1-6.19-.3 50 50 0 0 0-6.52-1.36 31.18 31.18 0 0 1-6.52-1.66 50.62 50.62 0 0 0-6.63-2q-3.37-.76-7.28-2-.44-2.43-.76-5t-.54-5q-.44-7.26-.87-14.53T0 203.6a20.7 20.7 0 0 1 2.93-12q3.15-5 7.06-5.3l7.61 33.9q.43 2.43.87 5.3t2.61 3.18a15.19 15.19 0 0 0 5-.91 7.18 7.18 0 0 0 3.91-3 29.33 29.33 0 0 0 3.48-7.72q1.3-4.38 2.61-8.63a23.45 23.45 0 0 0 .76-5.15 37.17 37.17 0 0 1 .54-5.15 16.85 16.85 0 0 0-.22-8.93 24.87 24.87 0 0 0-4.13-7.72q-2.39-3.33-5-6.66a69.35 69.35 0 0 0-5.65-6.36 63.29 63.29 0 0 1-7.61-9.54 62 62 0 0 1-5.87-11.35 80.58 80.58 0 0 1-3.26-9.84q-1.3-5-2.39-10.14a100.07 100.07 0 0 1-1.3-24.37 105.83 105.83 0 0 1 4.13-22.55q2.39-8.17 4.67-16.5t4.89-16.2a47.19 47.19 0 0 1 2.5-6.21 25.65 25.65 0 0 1 3.15-5 4.36 4.36 0 0 1 3.48-1.51 11.92 11.92 0 0 1 3.91.61q7 2.43 13.91 5t13.91 5.3zM8 125.2l-.22-.61-.22.3z"/>
    <path d="M131.92 73.13q3 3.33 1.63 5.45a22.28 22.28 0 0 1-3.8 4.24 31.36 31.36 0 0 1-13 6.51q-7.21 1.66-13.75 3.48a.75.75 0 0 0-.65.3q-1.3 7-2.72 13.77t-2.93 13.77q-1.09 5.45-2.28 12.56t-2.17 13.92q-1 6.81-1.41 12.56t.22 8.17a9.54 9.54 0 0 1 .22 4.54q-.65 6.06-1.41 12.41t-1.2 12.41a67.05 67.05 0 0 0 3.91 23q1.3-1.82 2.39-3.18a12.57 12.57 0 0 0 1.74-2.87q4.78-6.05 9.45-11.35a39.92 39.92 0 0 0 7.28-12q-.65 4.85-1.52 9.38-.87 4.24-2.17 8.63a41.82 41.82 0 0 1-3.48 8.33 65 65 0 0 1-4.35 9.08 37.31 37.31 0 0 1-5.76 7.72 17.81 17.81 0 0 1-6.52 4.39 6 6 0 0 1-6.41-1.51 6.94 6.94 0 0 1-1.3-2.87q-.65-2.27-1.41-5t-1.41-5.3c-.43-1.71-.73-2.88-.87-3.48a88.18 88.18 0 0 1-2.93-12.87 57.76 57.76 0 0 1-.33-13.77q.43-7 .33-14.38t-.11-14.38q.21-9.68.54-24.37t1.85-29.82q.43-3 .65-6.66t.65-7.87H78q-5.65 0-11.19.3a65.75 65.75 0 0 1-11-.3 6.13 6.13 0 0 1-2.28-.61 9.57 9.57 0 0 1-2.61-1.67 5.45 5.45 0 0 1-1.63-2.42 3 3 0 0 1 .87-2.87 4.54 4.54 0 0 1 2.72-1.67 16.85 16.85 0 0 1 4-.45h4.13a11.83 11.83 0 0 0 3-.3q3.7-1.21 7.06-2.42t6.85-2.12a5.53 5.53 0 0 1 1.74-.61q.43-9.69 1-17.41a83.12 83.12 0 0 1 1-9.54 12.93 12.93 0 0 0 .22-3.94 32 32 0 0 1 3-18.77 24.82 24.82 0 0 0 .87-4.24 25.81 25.81 0 0 0 .44-4.54 20.91 20.91 0 0 1 .43-4.24q.87-4.24 1.85-8.63T90.53.99A17.37 17.37 0 0 1 98.9.08a37.7 37.7 0 0 1 7.93 2.12 4.75 4.75 0 0 1 2.93 2.72 14.2 14.2 0 0 1 1.2 4.84 34.76 34.76 0 0 1 0 5.45q-1.52 14.23-2.93 28.15t-2.72 28.15l-.31 4.95a70 70 0 0 0 10-2 70.39 70.39 0 0 1 10-2c0-1.41.29-2.27.87-2.57a2.45 2.45 0 0 1 2.06 0 6.76 6.76 0 0 1 2.28 1.51c.7.78 1.28 1.33 1.71 1.73z"/>
</svg>